<svg fill="#51A7F9" xmlns="http://www.w3.org/2000/svg" xmlns:xlink="http://www.w3.org/1999/xlink" version="1.1" x="0px" y="0px" viewBox="0 0 100 100" enable-background="new 0 0 100 100" xml:space="preserve"><path fill="#51A7F9" d="M75.5,39c-0.793,0-1.569,0.095-2.324,0.266c-0.377-1.521-0.877-3.014-1.513-4.467  C71.186,33.706,70.106,33,68.914,33H23.086c-1.192,0-2.271,0.706-2.749,1.798C18.787,38.347,18,42.116,18,46  c0,8.918,4.195,16.869,10.71,22H26c-1.657,0-3,1.343-3,3s1.343,3,3,3h40c1.657,0,3-1.343,3-3s-1.343-3-3-3h-2.711  c3.116-2.454,5.699-5.553,7.548-9.096C72.266,59.615,73.853,60,75.5,60C81.29,60,86,55.29,86,49.5C86,43.71,81.29,39,75.5,39z   M46,68c-12.131,0-22-9.869-22-22c0-2.404,0.383-4.75,1.141-7h41.719C67.617,41.249,68,43.596,68,46C68,58.131,58.131,68,46,68z   M75.5,54c-0.889,0-1.737-0.263-2.46-0.738C73.662,50.944,74,48.511,74,46c0-0.245-0.013-0.487-0.019-0.73  C74.464,45.095,74.975,45,75.5,45c2.481,0,4.5,2.019,4.5,4.5S77.981,54,75.5,54z"></path></svg>