<svg fill="#51A7F9" xmlns="http://www.w3.org/2000/svg" xmlns:xlink="http://www.w3.org/1999/xlink" version="1.1" x="0px" y="0px" viewBox="0 0 100 100" style="enable-background:new 0 0 100 100;" xml:space="preserve"><style type="text/css">
	.st0{stroke:#51A7F9;stroke-width:7;stroke-miterlimit:10;}
</style><g><g><path d="M78.5,9.7c0.7,0,1.3,0,2,0.1V9.7H78.5z"></path><path d="M80.5,9.8c-0.7,0-1.3-0.1-2-0.1H4.2v1.9c0,11.1,0,44,0.1,53c0,1.4,0,2.2,0,2.3c0,0.6,0.1,1.2,0.2,1.8    c1.8,16.8,15.2,26,37.9,26c23.5,0,37-9.9,38.1-27.7c0-0.1,0-1.5,0-3.7c9.9-0.5,17.4-5.3,17.4-11.4V21.2    C97.8,15.1,90.3,10.3,80.5,9.8z M76.6,66.7c-0.6,11-7.1,24.2-34.3,24.2C16,90.9,9.1,78.5,8.1,67.8L8,66.7v0C8,64.9,8,32.3,8,13.5    h19.6v16.2h-2.7c-2.9,0-5.3,2.4-5.3,5.3v14.8c0,2.9,2.4,5.3,5.3,5.3h11.5c2.9,0,5.3-2.4,5.3-5.3V35.1c0-2.9-2.4-5.3-5.3-5.3h-5    V13.5h45.3C76.7,32.5,76.6,65.6,76.6,66.7z M36.4,33.5c0.8,0,1.5,0.7,1.5,1.5v14.8c0,0.9-0.7,1.5-1.5,1.5H24.9    c-0.9,0-1.5-0.7-1.5-1.5V35.1c0-0.8,0.7-1.5,1.5-1.5H36.4z M94,51.8c0,4.1-6.8,7.1-13.6,7.6c0-12,0-35.2,0-45.9    c8.1,0.5,13.5,4.2,13.5,7.6V51.8z"></path></g><g><path d="M4.4,68.7H4.2v-4.1h0.1c0,1.4,0,2.2,0,2.3C4.3,67.5,4.3,68.1,4.4,68.7z"></path></g><g><path class="st0" d="M78.5,66.8"></path></g><g><path d="M72.7,28.2v37.5c0,1-0.9,1.9-1.9,1.9c-1,0-1.9-0.9-1.9-1.9V28.2c0-1,0.9-1.9,1.9-1.9C71.8,26.3,72.7,27.2,72.7,28.2z"></path></g><g><path d="M72.6,20.8c0,1-0.8,1.8-1.8,1.8c-1,0-1.8-0.8-1.8-1.8c0-1,0.8-1.8,1.8-1.8C71.8,19,72.6,19.8,72.6,20.8z"></path></g></g></svg>