<svg fill="hsla(209, 93%, 65%, 1)" xmlns="http://www.w3.org/2000/svg" data-name="Layer 1" viewBox="0 0 5 5" x="0px" y="0px"><title>cup</title><path d="M3.84878,2.90081a3.54387,3.54387,0,0,0-.70365-.11952l.02521-.05585a1.61641,1.61641,0,0,0,.17327-.666c.00581-.14752.00635-.25644.00164-.32376a.2913.2913,0,0,0-.01667-.09c-.00341-.10011-.1-.17757-.2878-.2302A2.0737,2.0737,0,0,0,2.502,1.35077c-.29082,0-.77943.0611-.79639.28816a.31865.31865,0,0,0-.01741.10183c-.00238.04006-.00313.0928-.00227.1575a.35161.35161,0,0,0-.05421-.01486.3318.3318,0,0,0-.3871.26435.40583.40583,0,0,0,.08778.313.67049.67049,0,0,0,.51566.23031l.01561.03439.02387.05284C1.4268,2.81462.7842,2.91641.7842,3.20134c0,.14867.179.26027.54729.3412A5.71231,5.71231,0,0,0,2.5,3.64923a5.7123,5.7123,0,0,0,1.16851-.10669c.36827-.08093.54729-.19254.54729-.3412C4.2158,3.07443,4.09575,2.97613,3.84878,2.90081Zm-2.373-.55175a.22792.22792,0,0,1-.05256-.16765A.14987.14987,0,0,1,1.5981,2.062a.159.159,0,0,1,.09564.0562,1.49323,1.49323,0,0,0,.07692.38141A.447.447,0,0,1,1.47575,2.34906ZM2.502,1.53246a1.31529,1.31529,0,0,1,.63567.1187,1.31524,1.31524,0,0,1-.63567.11872,1.13846,1.13846,0,0,1-.60868-.11872A1.13864,1.13864,0,0,1,2.502,1.53246Zm-.63.51983c-.00354-.09015-.00473-.15729-.00465-.20729a1.69108,1.69108,0,0,0,.63469.10658,2.07369,2.07369,0,0,0,.53877-.06475.8491.8491,0,0,0,.126-.04513c.00014.04969-.001.1176-.00469.21059a1.44,1.44,0,0,1-.15705.59779.94808.94808,0,0,0-.11234.38618.36135.36135,0,0,1-.12349.08067.66946.66946,0,0,1-.26717.05879.49384.49384,0,0,1-.36073-.1365A.94347.94347,0,0,0,2.029,2.65008,1.44,1.44,0,0,1,1.872,2.05229ZM3.59191,3.37307A5.67663,5.67663,0,0,1,2.5,3.46754a5.67676,5.67676,0,0,1-1.09191-.09447c-.33185-.06825-.43149-.148-.442-.1727.00412-.01484.05624-.07364.26126-.13282A3.66738,3.66738,0,0,1,1.95,2.95585a.45658.45658,0,0,1,.00984.09336l.00054.00976c.01129.14946.27882.29845.54167.29845a.85126.85126,0,0,0,.37516-.09071c.07359-.03721.19706-.11495.19706-.21749a.45559.45559,0,0,1,.00927-.09057,3.55247,3.55247,0,0,1,.69866.11189c.19766.05828.24784.11558.25173.12982C4.02348,3.225,3.92391,3.30479,3.59191,3.37307Z"></path></svg>