<?xml version="1.0" encoding="utf-8"?>
<!-- Generator: Adobe Illustrator 21.0.0, SVG Export Plug-In . SVG Version: 6.00 Build 0)  -->
<svg version="1.1" id="Layer_1" xmlns="http://www.w3.org/2000/svg" xmlns:xlink="http://www.w3.org/1999/xlink" x="0px" y="0px"
	 viewBox="0 0 40.6 28" style="enable-background:new 0 0 40.6 28;" xml:space="preserve">
<style type="text/css">
	.st0{fill:#51A7F9;}
</style>
<path class="st0" d="M34.4,6c-0.8-0.5-1.7-1-2.6-1.2c0-0.3,0.1-0.7,0.1-1c0-0.5-0.2-1-0.4-1.3c-0.3-0.3-0.8-0.6-1.3-0.6H4.3
	c-0.4,0-1,0.3-1.2,0.6C2.8,2.8,2.6,3.2,2.6,3.7c0.5,8.6,3.3,17.4,6.9,21.9c0.3,0.4,0.9,0.6,1.4,0.6h12.8c0.5,0,1-0.2,1.4-0.6
	c1-1.2,1.9-2.8,2.7-4.5c0.7,0,1.4,0,2,0c4.5,0,8.2-3.7,8.2-8.3C38,10.1,36.6,7.5,34.4,6z M22.7,23H11.5C8.7,19.5,6.6,12.5,5.9,5.3
	h22.3C27.5,12.5,25.3,19.5,22.7,23z M29.7,18.6c-0.2,0-0.5,0-0.7,0c1.2-3.2,2.2-7.3,2.7-11.2c0.5,0.2,0.8,0.4,1.2,0.6
	c1.5,1.1,2.6,2.9,2.6,4.8C35.7,15.9,32.9,18.6,29.7,18.6z"/>
</svg>
