<?xml version="1.0" encoding="utf-8"?>
<!-- Generator: Adobe Illustrator 21.0.0, SVG Export Plug-In . SVG Version: 6.00 Build 0)  -->
<svg version="1.1" id="Layer_1" xmlns="http://www.w3.org/2000/svg" xmlns:xlink="http://www.w3.org/1999/xlink" x="0px" y="0px"
	 viewBox="0 0 29 24.4" style="enable-background:new 0 0 29 24.4;" xml:space="preserve">
<style type="text/css">
	.st0{fill:#51A7F9;}
</style>
<path class="st0" d="M12.6,2.1H3.1C2.7,2.1,2.3,2.3,2,2.6C1.7,2.9,1.6,3.3,1.6,3.8c0.5,7.7,3,13.8,6.1,17.8C8,22,8.5,22.1,9,22.1
	h3.6 M12.6,19.5H10c-0.1,0-0.2-0.1-0.4-0.1C8.4,19.1,4.4,9.6,4.4,5.2c0-0.2,0.2-0.4,0.4-0.4l7.7,0"/>
<path class="st0" d="M12.6,22.1h3.6c0.5,0,0.9-0.2,1.2-0.5c3.2-4,5.7-10.1,6.1-17.8c0-0.5-0.2-0.9-0.5-1.2c-0.2-0.3-0.7-0.5-1.1-0.5
	h-9.4 M12.6,4.8l7.7,0c0.2,0,0.4,0.2,0.4,0.4c0.1,4.4-4,13.9-5.2,14.2c-0.1,0-0.2,0.1-0.4,0.1h-2.6"/>
</svg>
