<?xml version="1.0" encoding="utf-8"?>
<!-- Generator: Adobe Illustrator 21.0.0, SVG Export Plug-In . SVG Version: 6.00 Build 0)  -->
<svg version="1.1" id="Layer_1" xmlns="http://www.w3.org/2000/svg" xmlns:xlink="http://www.w3.org/1999/xlink" x="0px" y="0px"
	 viewBox="0 0 29 24.4" style="enable-background:new 0 0 29 24.4;" xml:space="preserve">
<style type="text/css">
	.st0{fill:#51A7F9;}
</style>
<g>
	<path class="st0" d="M3.1,2.1C2.7,2.1,2.3,2.3,2,2.6C1.7,2.9,1.6,3.3,1.6,3.8c0.5,7.7,3,13.8,6.1,17.8C8,22,8.5,22.1,9,22.1h3.6
		l0-20H3.1z"/>
	<path class="st0" d="M23.1,2.6c-0.2-0.3-0.7-0.5-1.1-0.5h-9.4l0,20h3.6c0.5,0,0.9-0.2,1.2-0.5c3.2-4,5.7-10.1,6.1-17.8
		C23.6,3.3,23.4,2.9,23.1,2.6z"/>
</g>
</svg>
