<?xml version="1.0" ?><!DOCTYPE svg  PUBLIC '-//W3C//DTD SVG 1.1//EN'  'http://www.w3.org/Graphics/SVG/1.1/DTD/svg11.dtd'><svg enable-background="new 0 0 100 100" height="100px" id="Layer_1" version="1.1" viewBox="0 0 100 100" width="100px" xml:space="preserve" xmlns="http://www.w3.org/2000/svg" xmlns:xlink="http://www.w3.org/1999/xlink"><g><path d="M72.773,45.588c-0.605-0.217-1.154-0.209-1.654-0.067c-0.002-2.758-0.668-5.144-1.723-5.723   c-1.311-0.719-5.977-1.617-10.369-1.998c-4.395-0.38-11.412-0.554-15.594-0.384c-4.182,0.169-9.125,0.514-10.982,0.768   c-1.859,0.254-4.174,1.049-5.146,1.768c-0.973,0.718-1.49,5.004-1.152,9.524c0.338,4.521,1.271,11.744,2.074,16.054   c0.801,4.308,2.012,10.322,2.688,13.363c0.676,3.042,1.715,6.395,2.307,7.451c0.59,1.056,2.18,2.335,3.531,2.842   c1.354,0.508,4.359,1.13,6.684,1.383c2.322,0.254,6.436,0.322,9.139,0.153c2.705-0.169,6.299-0.791,7.99-1.383   c1.689-0.591,3.764-3.148,4.607-5.684c0.807-2.421,1.939-6.61,2.594-9.561c5.379-1.977,11.354-5.202,13.289-10.565   C84.061,55.208,81.088,48.582,72.773,45.588z M75.328,60.967c-0.594,0.561-1.188,1.12-1.781,1.681c-0.145,0.137-2,1.563-2.83,2.184   c-1.391,1.038-0.932,0.929-1.619,1.132c0.217-1.689,0.404-3.367,0.529-4.813c0.199-2.318,0.498-5.395,0.795-8.259   c2.467,0.887,4.527,1.595,5.514,3.322c0.35,0.616,0.5,1.248,0.535,1.345C76.613,59.203,75.574,60.735,75.328,60.967z" fill="#8ECB6E"/><g><path d="M68.039,36.494c0.168-1.442-0.475-1.725-1.697-2.324c-2.527-1.24-5.225-2.104-7.979-2.674    c-5.355-1.11-10.703-0.942-16.131-0.855c-5.043,0.082-10.164-0.116-15.129,0.932c-2.311,0.486-4.57,1.264-6.617,2.457    c-0.814,0.476-2.24,1.119-2.539,2.097c-0.414,1.356,0.174,3.521,0.289,4.927c0.496,6.065,1.107,12.126,2.033,18.143    c0.73,4.755,1.826,9.435,2.559,14.188c0.525,3.402,0.992,7.721,3.389,10.399c2.799,3.128,8.975,3.689,12.873,3.865    c3.912,0.176,7.963-0.249,11.818-0.914c2.977-0.514,7.766-0.922,9.49-3.737c0.791-1.288,1.266-2.767,1.664-4.214    c0.328-1.18,0.471-4.486,1.5-5.041c2.996-1.618,5.916-3.416,8.559-5.568c5.213-4.247,9.162-10.275,7.844-17.275    c-1.143-6.091-6.787-9.066-12.377-10.238C67.754,39.038,67.879,37.881,68.039,36.494z M69.609,57.125    c-1.182,1.623-2.504,3.275-4.262,4.298c0.484-3.457,0.867-6.927,1.215-10.398C71.047,51.24,70.693,55.635,69.609,57.125z     M23.883,54.229c-0.586-4.092-1.082-8.196-1.48-12.311c-0.098-0.979-0.188-1.96-0.271-2.94c-0.109-1.269-0.514-2.054,0.645-2.75    c1.059-0.635,2.184-1.057,3.393-1.296c6.623-1.31,13.635-1.114,20.363-1.162c5.885-0.043,11.533,0.072,16.77,2.939    c-7.932,0.696-15.746,0.94-23.699,1.04c-2.26,0.03-4.529-0.089-6.789-0.114c-1.686-0.02-3.33-0.036-5.006-0.231    c-1.27-0.149-3.102-0.6-4.33-0.117c-0.842,0.331,2.152,1.253,2.381,1.313c1.637,0.435,3.295,0.816,4.984,0.943    c2.35,0.177,4.701,0.346,7.053,0.516c7.848,0.568,16.189-0.085,23.859-1.716c0.74-0.157,1.479-0.332,2.217-0.504    c-0.914,7.634-1.594,15.27-2.344,22.918c-0.096,0.972-0.201,1.941-0.322,2.91c-0.236-0.027-0.508,0.015-0.744,0.025    c-0.67,0.032-1.492,0.172-2.098,0.439c-2.227,0.985,1.275,2.229,2.521,1.822c-0.105,0.687-0.232,1.369-0.361,2.052    c-0.695-0.682-3.729,0.07-4.379,0.591c-1.49,1.192,1.605,1.739,2.291,1.729c0.643-0.009,1.27-0.25,1.752-0.676    c-0.215,0.973-0.059,1.763-1.119,1.843c-0.4,0.031-0.82,0.028-1.215,0.106c-1.029,0.205-2.277,0.054-3.238,0.487    c-1.994,0.901,0.363,1.888,1.518,1.925c1.027,0.134,2.072,0.036,3.004-0.42c-0.295,0.932-0.258,1.501-1.105,1.814    c-0.303,0.112-0.674,0.051-0.992,0.104c-1.055,0.171-2.113,0.261-3.168,0.438c-1.807,0.305-0.717,1.427,0.396,1.799    c0.949,0.317,2.541,0.423,3.502,0.013c-0.457,1.378-0.326,1.528-1.623,1.729c-1.006,0.156-2.023,0.164-3.016,0.406    c-1.416,0.345-1.135,1.235,0.059,1.639c1.016,0.344,2.156,0.512,3.221,0.302c-0.303,0.906-2.762,1.284-3.699,1.533    c-1.248,0.33-2.52,0.524-3.803,0.644c-2.809,0.259-5.65,0.438-8.471,0.373c-4.252-0.096-11.031-0.732-12.172-5.856    C25.275,64.623,25.049,62.384,23.883,54.229z M71.189,64.359c-2.297,2.295-4.434,4.321-7.355,5.832    c0.184-0.867,0.357-1.735,0.521-2.606c0.199-1.063,0.176-1.258,1.1-1.787c1.229-0.704,2.426-1.477,3.535-2.361    c2.207-1.76,4.049-3.98,4.406-6.86c0.301-2.419-0.068-4.992-1.719-6.882c-0.773-0.887-1.766-1.557-2.838-2.029    c-0.607-0.268-1.238-0.474-1.883-0.631c0.102-1.029,0.201-2.06,0.301-3.088c3.301,0.575,5.98,1.985,7.777,4.914    c1.779,2.9,1.246,6.094,0.73,9.274C75.348,60.703,72.832,62.717,71.189,64.359z" fill="#22331A"/><path d="M42.254,25.155c-0.014,0.549-0.408,1.091-0.525,1.634c-0.42,1.937,1.654,0.213,2.121-0.263    c2.787-3.219-1.982-6.867,0.125-10.144c0.971-1.513,1.357-3.29,0.781-5.017c-0.342-0.805-3.074-3.611-2.889-1.264    c0.057,0.68,0.465,1.269,0.518,1.931c0.08,1.036-0.662,1.67-1.086,2.501c-0.502,0-1.033,2.181-1.092,2.501    c-0.178,0.965-0.094,1.94,0.102,2.895C40.432,20.385,42.305,23.261,42.254,25.155z" fill="#22331A"/><path d="M33.277,25.965c-0.002,0.493-0.322,0.947-0.119,1.455c0.344,0.854,1.416,0.02,1.773-0.308    c1.959-1.931-0.814-4.265,0.336-6.239c0.701-1.202,0.928-2.699,0.184-3.937c-0.711-1.181-2.631-1.307-2.279,0.452    c0.189,0.939-0.393,1.299-0.852,2.055c-0.795,1.304-0.816,3.13-0.125,4.488C32.273,24.082,33.281,25.473,33.277,25.965z" fill="#22331A"/><path d="M50.008,23.932c0.285,0.541,1.086,1.541,1.082,2.033c-0.002,0.493-0.322,0.947-0.119,1.455    c0.344,0.854,1.416,0.02,1.773-0.308c1.959-1.931-0.814-4.265,0.336-6.239c0.701-1.202,0.928-2.699,0.184-3.937    c-0.709-1.181-2.631-1.307-2.279,0.452c0.189,0.939-0.393,1.299-0.852,2.055C49.338,20.748,49.318,22.574,50.008,23.932    C50.086,24.082,49.854,23.629,50.008,23.932z" fill="#22331A"/><path d="M31.49,56.826c-0.066-0.299-1.154-5.039-1.807-3.515c-0.57,1.339-0.213,3.317-0.107,4.734    c0.277,3.742,0.807,7.505,1.818,11.117c0.264,0.935,0.566,2.893,1.422,3.436c0.693,0.44,0.43-2.416,0.416-2.627    c-0.1-1.394-0.203-2.783-0.428-4.164C32.717,65.378,32.133,59.801,31.49,56.826z" fill="#22331A"/></g></g></svg>